<svg xmlns="http://www.w3.org/2000/svg" width="98.06" height="35" viewBox="0 0 98.06 35"><rect class="svg__rect" x="0" y="0" width="0" height="35" fill="#31C4F3"/><rect class="svg__rect" x="0" y="0" width="98.06" height="35" fill="#FB7299"/><path class="svg__text" d="" fill="#FFFFFF"/><path class="svg__text" d="M18.73 22L14.19 22L14.19 13.60L18.49 13.60Q20.09 13.60 20.93 14.19Q21.78 14.79 21.78 15.79L21.78 15.79Q21.78 16.39 21.48 16.87Q21.18 17.34 20.64 17.62L20.64 17.62Q21.37 17.87 21.77 18.41Q22.18 18.94 22.18 19.70L22.18 19.70Q22.18 20.80 21.29 21.40Q20.40 22 18.73 22L18.73 22ZM16.54 18.58L16.54 20.28L18.54 20.28Q19.78 20.28 19.78 19.43L19.78 19.43Q19.78 18.58 18.54 18.58L18.54 18.58L16.54 18.58ZM16.54 15.31L16.54 16.94L18.17 16.94Q19.37 16.94 19.37 16.12L19.37 16.12Q19.37 15.31 18.17 15.31L18.17 15.31L16.54 15.31ZM29.28 22L26.90 22L26.90 13.60L29.28 13.60L29.28 22ZM40.84 22L34.45 22L34.45 13.60L36.83 13.60L36.83 20.11L40.84 20.11L40.84 22ZM47.63 22L45.25 22L45.25 13.60L47.63 13.60L47.63 22ZM57.35 22L52.81 22L52.81 13.60L57.11 13.60Q58.71 13.60 59.55 14.19Q60.39 14.79 60.39 15.79L60.39 15.79Q60.39 16.39 60.10 16.87Q59.80 17.34 59.26 17.62L59.26 17.62Q59.98 17.87 60.39 18.41Q60.80 18.94 60.80 19.70L60.80 19.70Q60.80 20.80 59.91 21.40Q59.02 22 57.35 22L57.35 22ZM55.16 18.58L55.16 20.28L57.15 20.28Q58.40 20.28 58.40 19.43L58.40 19.43Q58.40 18.58 57.15 18.58L57.15 18.58L55.16 18.58ZM55.16 15.31L55.16 16.94L56.79 16.94Q57.99 16.94 57.99 16.12L57.99 16.12Q57.99 15.31 56.79 15.31L56.79 15.31L55.16 15.31ZM67.89 22L65.52 22L65.52 13.60L67.89 13.60L67.89 22ZM79.46 22L73.07 22L73.07 13.60L75.45 13.60L75.45 20.11L79.46 20.11L79.46 22ZM86.25 22L83.87 22L83.87 13.60L86.25 13.60L86.25 22Z" fill="#FFFFFF" x="39"/></svg>