<?xml version="1.0" encoding="utf-8"?>
<svg xmlns="http://www.w3.org/2000/svg" style="margin: auto; background: rgba(241, 242, 243, 0); display: block; shape-rendering: auto;" width="286" height="84" preserveAspectRatio="xMidYMid">
<style type="text/css">
  text {
    text-anchor: middle; font-size: 67px; opacity: 0;
  }
</style>
<g style="transform-origin: 143px 42px; transform: scale(0.848101);">
<g transform="translate(143,42)">
  <g transform="translate(0,0)"><g class="path" style="transform: scale(0.91); transform-origin: -119.05px -7.63017px; animation: 0.568182s linear -0.328125s infinite normal forwards running breath-892616d2-1c00-4811-b2c9-9668f9bed179;"><path d="M41.87 0L41.87-25.20L14.62-25.20L14.62 0L7.11 0L7.11-55.30L14.62-55.30L14.62-31.68L41.87-31.68L41.87-55.30L49.38-55.30L49.38 0L41.87 0" fill="#c44129" stroke="none" stroke-width="none" transform="translate(-147.29501342773438,20.019822883605958)" style="fill: rgb(196, 65, 41);"></path></g><g class="path" style="transform: scale(0.91); transform-origin: -80.94px -0.520178px; animation: 0.568182s linear -0.28125s infinite normal forwards running breath-892616d2-1c00-4811-b2c9-9668f9bed179;"><path d="M69.91-41.08L69.91 0L62.80 0L62.80-41.08L69.91-41.08" fill="#c44129" stroke="none" stroke-width="none" transform="translate(-147.29501342773438,20.019822883605958)" style="fill: rgb(236, 147, 50);"></path></g><g class="path" style="transform: scale(0.91); transform-origin: -80.935px -33.0652px; animation: 0.568182s linear -0.234375s infinite normal forwards running breath-892616d2-1c00-4811-b2c9-9668f9bed179;"><path d="M66.36-48.11L66.36-48.11L66.36-48.11Q64.31-48.11 62.84-49.57L62.84-49.57L62.84-49.57Q61.38-51.03 61.38-53.09L61.38-53.09L61.38-53.09Q61.38-55.38 62.73-56.72L62.73-56.72L62.73-56.72Q64.07-58.06 66.36-58.06L66.36-58.06L66.36-58.06Q68.41-58.06 69.88-56.60L69.88-56.60L69.88-56.60Q71.34-55.14 71.34-53.09L71.34-53.09L71.34-53.09Q71.34-50.80 69.99-49.45L69.99-49.45L69.99-49.45Q68.65-48.11 66.36-48.11" fill="#c44129" stroke="none" stroke-width="none" transform="translate(-147.29501342773438,20.019822883605958)" style="fill: rgb(62, 132, 16);"></path></g><g class="path" style="transform: scale(0.91); transform-origin: -25.83px -7.63017px; animation: 0.568182s linear -0.1875s infinite normal forwards running breath-892616d2-1c00-4811-b2c9-9668f9bed179;"><path d="M100.73-48.66L100.73-55.30L142.20-55.30L142.20-48.66L125.22-48.66L125.22 0L117.71 0L117.71-48.66L100.73-48.66" fill="#c44129" stroke="none" stroke-width="none" transform="translate(-147.29501342773438,20.019822883605958)" style="fill: rgb(5, 96, 189);"></path></g><g class="path" style="transform: scale(0.91); transform-origin: 19.275px -9.21018px; animation: 0.568182s linear -0.140625s infinite normal forwards running breath-892616d2-1c00-4811-b2c9-9668f9bed179;"><path d="M156.42-58.46L156.42-34.52L156.42-34.52Q158.63-37.76 161.99-39.90L161.99-39.90L161.99-39.90Q165.35-42.03 170.01-42.03L170.01-42.03L170.01-42.03Q176.96-42.03 180.40-37.84L180.40-37.84L180.40-37.84Q183.83-33.65 183.83-26.78L183.83-26.78L183.83 0L176.72 0L176.72-25.99L176.72-25.99Q176.72-30.49 174.71-33.14L174.71-33.14L174.71-33.14Q172.69-35.79 168.90-35.79L168.90-35.79L168.90-35.79Q167.09-35.79 165.31-35.12L165.31-35.12L165.31-35.12Q163.53-34.44 161.95-33.26L161.95-33.26L161.95-33.26Q160.37-32.07 158.95-30.49L158.95-30.49L158.95-30.49Q157.53-28.91 156.42-27.18L156.42-27.18L156.42 0L149.31 0L149.31-58.46L156.42-58.46" fill="#c44129" stroke="none" stroke-width="none" transform="translate(-147.29501342773438,20.019822883605958)" style="fill: rgb(196, 65, 41);"></path></g><g class="path" style="transform: scale(0.91); transform-origin: 64.145px -0.520176px; animation: 0.568182s linear -0.09375s infinite normal forwards running breath-892616d2-1c00-4811-b2c9-9668f9bed179;"><path d="M229.34-17.62L200.58-17.62L200.58-17.62Q201.29-11.85 204.61-8.61L204.61-8.61L204.61-8.61Q207.93-5.37 213.38-5.37L213.38-5.37L213.38-5.37Q216.93-5.37 219.78-6.12L219.78-6.12L219.78-6.12Q222.62-6.87 225.23-8.06L225.23-8.06L226.89-1.98L226.89-1.98Q224.04-0.63 220.49 0.16L220.49 0.16L220.49 0.16Q216.93 0.95 212.51 0.95L212.51 0.95L212.51 0.95Q208.09 0.95 204.53-0.51L204.53-0.51L204.53-0.51Q200.98-1.98 198.49-4.70L198.49-4.70L198.49-4.70Q196.00-7.43 194.66-11.42L194.66-11.42L194.66-11.42Q193.31-15.40 193.31-20.54L193.31-20.54L193.31-20.54Q193.31-25.12 194.66-29.07L194.66-29.07L194.66-29.07Q196.00-33.02 198.45-35.91L198.45-35.91L198.45-35.91Q200.90-38.79 204.29-40.41L204.29-40.41L204.29-40.41Q207.69-42.03 211.88-42.03L211.88-42.03L211.88-42.03Q216.30-42.03 219.62-40.53L219.62-40.53L219.62-40.53Q222.94-39.03 225.15-36.42L225.15-36.42L225.15-36.42Q227.36-33.81 228.47-30.34L228.47-30.34L228.47-30.34Q229.57-26.86 229.57-22.99L229.57-22.99L229.57-22.99Q229.57-20.22 229.34-17.62L229.34-17.62zM211.72-35.87L211.72-35.87L211.72-35.87Q207.06-35.87 204.10-32.71L204.10-32.71L204.10-32.71Q201.13-29.55 200.50-23.38L200.50-23.38L223.02-23.38L223.02-23.38Q223.02-29.39 220.02-32.63L220.02-32.63L220.02-32.63Q217.01-35.87 211.72-35.87" fill="#c44129" stroke="none" stroke-width="none" transform="translate(-147.29501342773438,20.019822883605958)" style="fill: rgb(236, 147, 50);"></path></g><g class="path" style="transform: scale(0.91); transform-origin: 103.965px -0.995176px; animation: 0.568182s linear -0.046875s infinite normal forwards running breath-892616d2-1c00-4811-b2c9-9668f9bed179;"><path d="M263.47-41.55L261.33-34.21L261.33-34.21Q259.83-34.84 257.78-34.84L257.78-34.84L257.78-34.84Q255.56-34.84 253.47-33.89L253.47-33.89L253.47-33.89Q251.38-32.94 249.76-31.05L249.76-31.05L249.76-31.05Q248.14-29.15 247.15-26.19L247.15-26.19L247.15-26.19Q246.16-23.23 246.16-19.20L246.16-19.20L246.16 0L239.05 0L239.05-41.08L245.93-41.08L245.93-32.15L245.93-32.15Q246.64-34.05 247.82-35.87L247.82-35.87L247.82-35.87Q249.01-37.68 250.63-39.03L250.63-39.03L250.63-39.03Q252.25-40.37 254.38-41.20L254.38-41.20L254.38-41.20Q256.51-42.03 259.12-42.03L259.12-42.03L259.12-42.03Q260.31-42.03 261.45-41.91L261.45-41.91L261.45-41.91Q262.60-41.79 263.47-41.55L263.47-41.55" fill="#c44129" stroke="none" stroke-width="none" transform="translate(-147.29501342773438,20.019822883605958)" style="fill: rgb(62, 132, 16);"></path></g><g class="path" style="transform: scale(0.91); transform-origin: 136.275px -0.520176px; animation: 0.568182s linear 0s infinite normal forwards running breath-892616d2-1c00-4811-b2c9-9668f9bed179;"><path d="M301.46-17.62L272.71-17.62L272.71-17.62Q273.42-11.85 276.74-8.61L276.74-8.61L276.74-8.61Q280.06-5.37 285.51-5.37L285.51-5.37L285.51-5.37Q289.06-5.37 291.90-6.12L291.90-6.12L291.90-6.12Q294.75-6.87 297.36-8.06L297.36-8.06L299.01-1.98L299.01-1.98Q296.17-0.63 292.62 0.16L292.62 0.16L292.62 0.16Q289.06 0.95 284.64 0.95L284.64 0.95L284.64 0.95Q280.21 0.95 276.66-0.51L276.66-0.51L276.66-0.51Q273.10-1.98 270.61-4.70L270.61-4.70L270.61-4.70Q268.13-7.43 266.78-11.42L266.78-11.42L266.78-11.42Q265.44-15.40 265.44-20.54L265.44-20.54L265.44-20.54Q265.44-25.12 266.78-29.07L266.78-29.07L266.78-29.07Q268.13-33.02 270.57-35.91L270.57-35.91L270.57-35.91Q273.02-38.79 276.42-40.41L276.42-40.41L276.42-40.41Q279.82-42.03 284.00-42.03L284.00-42.03L284.00-42.03Q288.43-42.03 291.75-40.53L291.75-40.53L291.75-40.53Q295.06-39.03 297.28-36.42L297.28-36.42L297.28-36.42Q299.49-33.81 300.59-30.34L300.59-30.34L300.59-30.34Q301.70-26.86 301.70-22.99L301.70-22.99L301.70-22.99Q301.70-20.22 301.46-17.62L301.46-17.62zM283.85-35.87L283.85-35.87L283.85-35.87Q279.19-35.87 276.22-32.71L276.22-32.71L276.22-32.71Q273.26-29.55 272.63-23.38L272.63-23.38L295.14-23.38L295.14-23.38Q295.14-29.39 292.14-32.63L292.14-32.63L292.14-32.63Q289.14-35.87 283.85-35.87" fill="#c44129" stroke="none" stroke-width="none" transform="translate(-147.29501342773438,20.019822883605958)" style="fill: rgb(5, 96, 189);"></path></g></g>
</g>
</g>
<style id="breath-892616d2-1c00-4811-b2c9-9668f9bed179" data-anikit="">@keyframes breath-892616d2-1c00-4811-b2c9-9668f9bed179
{
  0% {
    animation-timing-function: cubic-bezier(0.9647,0.2413,-0.0705,0.7911);
    transform: scale(0.9099999999999999);
  }
  51% {
    animation-timing-function: cubic-bezier(0.9226,0.2631,-0.0308,0.7628);
    transform: scale(1.02994);
  }
  100% {
    transform: scale(0.9099999999999999);
  }
}</style></svg>
