<svg xmlns="http://www.w3.org/2000/svg" width="72.33000000000001" height="35" viewBox="0 0 72.33000000000001 35"><rect class="svg__rect" x="0" y="0" width="0" height="35" fill="#31C4F3"/><rect class="svg__rect" x="0" y="0" width="72.33000000000001" height="35" fill="#2C974B"/><path class="svg__text" d="" fill="#FFFFFF"/><path class="svg__text" d="M16.54 22L14.19 22L14.19 13.60L16.54 13.60L16.54 17.09L19.80 13.60L22.41 13.60L18.98 17.32L22.59 22L19.83 22L17.43 18.95L16.54 19.90L16.54 22ZM26.63 18.26L26.63 18.26L26.63 13.60L29.01 13.60L29.01 18.19Q29.01 20.20 30.60 20.20L30.60 20.20Q32.18 20.20 32.18 18.19L32.18 18.19L32.18 13.60L34.53 13.60L34.53 18.26Q34.53 20.13 33.49 21.15Q32.45 22.17 30.58 22.17L30.58 22.17Q28.70 22.17 27.66 21.15Q26.63 20.13 26.63 18.26ZM41.03 22L38.60 22L42.31 13.60L44.66 13.60L48.37 22L45.90 22L45.24 20.37L41.69 20.37L41.03 22ZM43.47 15.93L42.38 18.61L44.55 18.61L43.47 15.93ZM54.86 22L52.53 22L52.53 13.60L54.48 13.60L58.19 18.07L58.19 13.60L60.52 13.60L60.52 22L58.57 22L54.86 17.52L54.86 22Z" fill="#FFFFFF" x="39"/></svg>